<svg xmlns="http://www.w3.org/2000/svg" width="1090" height="121" viewBox="0 0 1090 121" fill="none">
<path fill-rule="evenodd" clip-rule="evenodd" d="M164.501 8.87171C176.398 9.31139 189.363 20.4513 188.582 33.8024C187.831 46.65 175.573 55.4076 163.01 56.7419L141.935 57.0292L141.901 8.35888L164.501 8.87164V8.87171ZM272.127 55.8077L273.237 51.6962C268.285 51.2879 270.449 51.155 268.914 52.9899C265.225 57.2962 264.105 58.3577 256.824 58.3313C251.107 58.3105 244.829 58.5386 239.191 58.1636L238.994 9.43294C247.581 8.80804 257.53 9.3079 266.166 9.26692C283.248 9.1862 279.291 15.9643 287.447 16.0792L284.69 1.22769L219.614 1.20709C220.022 6.10157 224.594 4.37184 227.094 8.3405C229.478 12.1237 228.215 45.8186 228.215 51.5625C228.215 71.4727 228.117 91.4075 228.233 111.315C209.545 111.315 201.819 102.089 192.35 92.629C187.676 87.9597 172.125 68.7667 168.846 62.3009C189.45 58.0411 208.864 35.7928 190.56 14.954C177.697 0.30876 160.216 1.4078 142.555 1.21139L122.077 2.53568C124.161 6.27745 129.166 5.14409 130.565 10.2796L130.561 109.747C128.923 115.921 123.022 113.59 122.212 118.341C125.175 119.803 147.033 119.812 150.132 118.341C149.46 113.932 144.444 115.83 142.192 111.074C140.464 107.425 141.26 69.6399 141.82 66.0867C162.612 66.2707 163.646 73.2086 173.269 84.5067C201.87 118.085 203.927 120.152 238.883 119.439C255.61 119.099 273.412 120.131 289.914 119.242L292.737 104.674C285.041 104.626 286.977 110.867 279.114 110.49L239.539 110.468L239.505 66.6999C248.075 66.6999 255.783 66.8635 264.044 67.3284C269.563 68.7057 264.219 70.2368 269.571 71.1124C271.716 67.5127 271.874 60.4687 272.127 55.8077H272.127ZM481.333 9.79472C484.6 3.24093 489.017 6.97951 489.804 1.17714L461.717 1.24808C462.14 6.41287 467.972 4.43032 469.866 10.0504C470.678 12.4613 470.258 22.9411 470.258 26.2039L470.109 110.372C468.916 117.202 462.815 114.558 461.602 119.186C465.102 121.65 483.789 120.073 489.542 120.076C489.308 114.783 484.761 117.594 481.186 111.229L480.99 51.4621C488.523 57.9038 519.982 107.1 530.862 116.22C539.152 123.168 552.932 122.967 557.092 112.794C535.924 113.006 541.739 117.99 519.467 87.8019C515.03 81.7879 493.623 54.2915 492.091 49.8722C499.041 40.9625 508.177 32.4101 515.906 23.6509C521.747 17.0312 527.508 10.676 536.194 6.54829C539.954 4.76127 543.378 5.16811 543.71 1.69064L513.487 1.19108C513.961 6.10839 515.726 2.49884 519.936 5.93487C519.801 11.3887 481.771 48.7477 481.057 49.1452L481.333 9.7948L481.333 9.79472ZM849.964 -9.59016e-05H842.588C837.131 2.77916 829.804 2.62388 823.754 13.64C805.275 47.2904 869.622 57.94 870.797 88.7522C871.548 108.462 845.954 116.249 831.316 109.984C820.735 105.455 821.959 100.358 814.911 94.6521L814.687 109.346C823.341 112.046 829.896 118.731 840.793 120.01C874.569 123.975 892.532 85.9442 868.938 62.4643C861.916 55.4758 833.37 35.3865 830.837 28.3371C827.018 17.7078 837.103 8.97088 845.805 8.09271C858.418 6.81993 864.18 15.0977 870.679 19.2969L870.566 8.27364C866.695 6.97737 853.253 1.6882 849.964 -9.59016e-05ZM774.085 -9.59016e-05H765.366C757.397 5.68583 752.852 3.94988 747.756 14.3245C730.961 48.5183 793.437 57.197 795.057 88.7493C796.011 107.308 771.464 116.394 756.077 110.191C745.882 106.081 745.786 100.241 739.314 94.4842L738.775 109.296C746.832 111.711 770.746 131.029 792.155 112.453C808.657 98.1344 807.429 76.4765 793.592 62.7922C786.127 55.4088 758.803 35.9695 755.569 29.5015C750.401 19.1659 760.616 9.72023 768.345 8.34242C782.446 5.82866 787.293 14.9422 795.122 19.1247L794.825 8.44211C787.754 4.7775 780.299 2.9615 774.085 -9.59016e-05ZM889.4 2.53568C892.058 8.64023 898.113 2.57452 898.113 16.0605L898.059 98.8992C898.065 102.657 898.888 108.518 897.037 111.633C894.489 115.92 890.153 114.072 889.52 118.341C897.124 120.175 944.755 119.035 958.983 118.853L962.243 104.131C955.51 104.366 955.441 110.944 943.869 110.944L908.828 110.891L908.814 65.8581C949.263 64.8608 929.676 70.0971 939.681 71.0052L942.373 51.8692C935.288 52.0247 938.748 57.6709 929.41 58.1652C923.254 58.4911 915.417 58.2263 909.149 58.1063C908.324 50.3173 908.573 18.6713 908.979 9.44058L938.754 9.4176C951.923 9.4176 949.38 15.8986 956.951 16.2608L954.368 1.67982C947.63 0.805509 916.744 1.40262 905.508 1.29284C900.939 1.248 892.085 0.037038 889.4 2.53568H889.4ZM66.5181 -9.59016e-05H55.7979C51.9898 1.72963 45.7603 2.07999 41.2942 3.53274C-10.3816 20.3421 -15.3584 93.1689 36.6057 115.224C60.9086 125.539 72.144 118.48 93.9644 113.022C97.0364 115.053 99.6628 117.7 105.029 118.478C101.072 104.88 101.95 99.4683 101.95 84.5291C101.95 80.0865 101.418 69.9998 102.127 66.208C103.508 58.8223 110.489 62.9156 110.022 56.8067L83.1 57.4798C83.9786 63.6646 91.5751 57.4393 91.5206 70.9622C91.4923 78.0204 91.4648 85.0774 91.4805 92.1372C91.5017 101.581 92.9221 104.101 85.2108 108C80.3409 110.462 74.5785 112.061 68.4267 112.644C-7.80334 119.871 -7.31306 3.61938 65.016 7.63065C84.5902 8.71636 86.7256 14.3984 95.5896 19.6167L95.4079 6.3097L66.518 5.23373e-05L66.5181 -9.59016e-05ZM376.237 56.7413C376.168 63.3547 384.579 57.4021 384.613 70.0945C384.633 77.4345 384.54 84.7919 384.567 92.1386C384.607 102.899 385.762 102.958 377.727 107.265C349.362 122.47 316.762 107.353 307.296 80.9352C287.013 24.335 350.484 -14.3043 388.547 19.8121L388.474 6.30221C363.061 0.203881 342.983 -3.82614 321.117 9.6596C281.992 33.79 284.312 90.6533 322.755 112.108C347.221 125.763 363.096 120.688 388.064 112.785C390.795 114.899 393.068 117.11 397.775 118.494C393.898 106.041 394.973 98.0898 394.973 84.529C394.973 79.6704 394.461 71.2479 395.012 66.8134C395.913 59.5568 401.806 62.5328 403.376 57.4796C398.989 55.0986 382.498 56.7412 376.237 56.7412L376.237 56.7413ZM981.788 -9.59016e-05H968.652C970.867 5.90678 983.711 15.0031 985.228 19.7883L985.418 109.745C983.966 117.026 977.505 112.756 977.053 119.257C983.141 119.237 999.764 120.767 1003.62 118.341C1001.5 111.707 994.765 119.254 994.896 102.287C995.035 84.4053 993.787 41.9922 995.16 29.7618C1006.33 40.607 1038.79 80.9307 1053.44 96.7541L1072.58 119.199L1081.16 119.276C1082.03 107.158 1080.62 12.9444 1081.69 9.7816C1083.27 5.1329 1088.02 6.53228 1090 2.53553C1087.7 1.12474 1066.29 0.0692058 1063.3 2.53553C1066.24 9.86113 1072.01 -1.08787 1071.97 21.1319C1071.93 39.2814 1073.12 89.1524 1071.69 100.447C1064.29 93.6425 1036.34 59.4762 1027.44 49.842L988.671 5.43672C985.676 1.84496 985.066 2.55903 981.788 -0.000244141V-9.59016e-05ZM674.781 20.3845L689.765 57.7013L658.688 57.553L674.781 20.3845ZM584.982 8.45909C587.529 4.48154 591.933 5.86053 592.397 1.21331L564.61 1.69064C564.791 6.30221 571.19 4.10953 572.871 10.3315L572.821 110.491C571.582 114.798 566.076 114.316 564.407 118.341C567.047 120.17 569.637 119.388 574.751 119.359C587.361 119.286 642.86 121.003 646.264 118.341C644.279 113.456 635.046 116.527 638.105 107.704C640.002 102.235 655.171 64.7172 657.442 64.197L691.54 64.2018C694.244 64.8318 709.786 104.106 711.054 108.344C713.643 116.996 704.878 113.686 702.588 118.341C704.952 120.049 732.394 120.296 734.775 118.341C733.333 114.99 727.277 117.209 723.084 108.181L678.207 1.17722H673.846C669.719 7.40014 661.739 28.0008 658.239 36.2911C653.276 48.0473 648.238 59.4168 643.23 71.2885C624.383 115.967 629.484 112.573 607.999 112.569C601.949 112.567 588.825 113.297 584.49 111.318C582.504 104.387 583.797 62.8286 583.797 52.408C583.797 46.6315 582.563 12.2367 584.982 8.45924L584.982 8.45909Z" fill="white"/>
</svg>